<?xml version="1.0" encoding="utf-8"?>
<!-- Generator: Adobe Illustrator 16.0.0, SVG Export Plug-In . SVG Version: 6.00 Build 0)  -->
<!DOCTYPE svg PUBLIC "-//W3C//DTD SVG 1.1//EN" "http://www.w3.org/Graphics/SVG/1.1/DTD/svg11.dtd">
<svg version="1.1" id="Layer_1" xmlns="http://www.w3.org/2000/svg" xmlns:xlink="http://www.w3.org/1999/xlink" x="0px" y="0px"
	 width="200px" height="200px" viewBox="0 0 200 200" enable-background="new 0 0 200 200" xml:space="preserve">
<g>
	<g opacity="0.3" enable-background="new    ">
		<path fill="#9C9C9C" d="M145.345,149.875c0.079,0,0.156,0.008,0.234,0.01c0.121-7.652,6.425-13.758,14.078-13.637
			c5.599,0.09,10.593,3.539,12.66,8.741c4.51-3.914,11.34-3.43,15.25,1.082c0.974,1.116,1.702,2.421,2.146,3.83
			c0.166-0.011,0.332-0.024,0.5-0.024c3.896,0.037,7.02,3.225,6.982,7.118c-0.036,3.84-3.14,6.944-6.982,6.981h-44.869
			c-3.895-0.037-7.02-3.225-6.981-7.117c0.036-3.842,3.14-6.945,6.981-6.982V149.875z"/>
	</g>
	<g>
		<g>
			<g>
				<path fill="#E34343" d="M97.724,32.493c-39.571,0-71.65,32.08-71.65,71.65c0,39.571,32.08,71.65,71.65,71.65
					c39.572,0,71.65-32.079,71.65-71.65C169.374,64.573,137.296,32.493,97.724,32.493L97.724,32.493z M39.356,104.145
					c0-32.201,26.168-58.368,58.368-58.368c13.104,0,25.2,4.32,34.944,11.61c0.943,0.706,1.052,2.08,0.218,2.912l-79.008,79.009
					c-0.832,0.833-2.206,0.724-2.912-0.219C43.677,129.345,39.356,117.248,39.356,104.145L39.356,104.145z M97.723,162.511
					c-13.103,0-25.201-4.319-34.943-11.609c-0.944-0.707-1.053-2.08-0.219-2.914l79.007-79.007c0.834-0.833,2.206-0.725,2.913,0.219
					c7.29,9.743,11.61,21.839,11.611,34.943C156.093,136.343,129.924,162.513,97.723,162.511L97.723,162.511z"/>
			</g>
			<g>
				<path fill="#D32424" d="M119.217,35.773c26.054,10.726,44.398,36.366,44.398,66.286c0,39.572-32.08,71.652-71.652,71.652
					c-7.472,0-14.672-1.144-21.443-3.263c8.386,3.443,17.575,5.345,27.204,5.345c39.572,0,71.65-32.079,71.65-71.65
					C169.374,72.061,148.286,44.901,119.217,35.773z"/>
			</g>
			<g>
				<path d="M149.916,51.951c-13.94-13.942-32.477-21.619-52.192-21.619c-18.359,0-35.956,6.784-49.549,19.102
					c-0.884,0.801-0.951,2.167-0.15,3.051c0.801,0.884,2.167,0.952,3.051,0.151c12.796-11.597,29.363-17.983,46.648-17.983
					c18.561,0,36.012,7.229,49.137,20.354c13.125,13.126,20.354,30.576,20.354,49.138c0,18.563-7.229,36.013-20.354,49.138
					s-30.576,20.354-49.137,20.354c-18.562,0-36.013-7.229-49.138-20.354s-20.354-30.576-20.354-49.138
					c0-16.22,5.707-32.004,16.069-44.445c0.763-0.916,0.639-2.278-0.278-3.042c-0.917-0.764-2.279-0.639-3.042,0.277
					c-11.007,13.216-17.069,29.982-17.069,47.21c0,19.716,7.677,38.251,21.619,52.192c13.941,13.942,32.477,21.619,52.192,21.619
					c19.715,0,38.251-7.677,52.192-21.619c13.942-13.941,21.619-32.477,21.619-52.192S163.858,65.893,149.916,51.951L149.916,51.951
					z"/>
				<path d="M133.962,55.657c-10.528-7.877-23.058-12.041-36.238-12.041c-16.15,0-31.346,6.301-42.786,17.741
					c-11.441,11.441-17.742,26.637-17.742,42.787c0,13.181,4.164,25.71,12.041,36.238c0.715,0.956,1.806,1.552,2.994,1.636
					c1.157,0.085,2.344-0.352,3.177-1.183l6.709-6.71c0.844-0.843,0.844-2.212,0-3.055c-0.843-0.845-2.211-0.845-3.055,0
					l-6.518,6.519c-7.215-9.732-11.027-21.291-11.027-33.445c0-14.996,5.851-29.106,16.476-39.731
					c10.625-10.625,24.736-16.477,39.733-16.476c12.152,0,23.71,3.813,33.443,11.026l-1.795,1.794c-0.844,0.844-0.844,2.211,0,3.054
					c0.845,0.844,2.212,0.844,3.057,0l1.984-1.985c0.838-0.837,1.271-1.994,1.186-3.177
					C135.514,57.463,134.918,56.373,133.962,55.657L133.962,55.657z"/>
				<path d="M59.849,149.637c0.084,1.187,0.681,2.279,1.638,2.993c10.527,7.877,23.058,12.041,36.237,12.041h0.001
					c16.15,0,31.346-6.302,42.786-17.742c11.44-11.44,17.743-26.635,17.743-42.786c0-13.179-4.165-25.709-12.043-36.237
					c-0.714-0.956-1.806-1.552-2.993-1.637c-1.182-0.086-2.337,0.347-3.176,1.185l-3.957,3.956c-0.843,0.843-0.843,2.211,0,3.055
					c0.846,0.844,2.214,0.844,3.056,0l3.764-3.764c7.216,9.731,11.029,21.291,11.029,33.444c0,14.996-5.853,29.107-16.477,39.732
					c-10.625,10.624-24.736,16.476-39.733,16.476c-12.153,0-23.711-3.812-33.443-11.028l2.233-2.232
					c0.844-0.846,0.844-2.213,0-3.056c-0.843-0.844-2.211-0.844-3.054,0l-2.426,2.426C60.196,147.297,59.764,148.456,59.849,149.637
					z"/>
			</g>
		</g>
		<g>
			<g>
				<path fill="#FFEA9A" d="M77.79,75.07c-6.736,0-12.197,5.46-12.197,12.197c0,5.757,3.989,10.582,9.353,11.863v-5.609
					c-2.375-1.082-4.026-3.473-4.026-6.254c0-3.794,3.076-6.871,6.87-6.871c2.882,0,5.347,1.773,6.368,4.289h5.554
					C88.527,79.19,83.641,75.07,77.79,75.07z"/>
			</g>
			<g>
				<path fill="#15A977" d="M76.639,99.389c1.832-6.157,8.486-0.937,8.486-0.937s-9.5-10.832-6.747-14.996s8.696-0.373,8.696-0.373
					s-3.145-14.426,5.091-15.336c8.236-0.909,8.313,13.857,8.313,13.857s4.975-4.996,8.569-1.533
					c3.596,3.463-3.316,16.108-3.316,16.108s5.357-6.547,8.487-0.938c3.13,5.61-8.483,16.287-8.483,16.287l-7.979,6.312
					l-9.287-4.406C88.47,113.434,74.808,105.547,76.639,99.389L76.639,99.389z"/>
			</g>
			<g>
				<path fill="#13A071" d="M114.219,95.242c-3.13-5.609-8.486,0.938-8.486,0.938s6.911-12.645,3.315-16.108
					c-3.595-3.463-8.567,1.533-8.567,1.533s-0.079-14.766-8.314-13.857c-2.586,0.286-4.05,1.904-4.841,3.989
					c0.185-0.036,0.374-0.068,0.571-0.09c4.803-0.53,6.832,4.271,7.688,8.366c0.462,2.212,2.717,3.499,4.902,2.92
					c1.401-0.37,2.943-0.261,4.29,1.039c1.982,1.909,0.772,6.61-0.714,10.443c-0.518,1.339,0.613,2.775,2.026,2.516
					c1.341-0.245,2.741,0.208,3.861,2.211c2.206,3.953-2.913,10.423-6.128,13.899l1.914-1.512
					C105.735,111.528,117.349,100.852,114.219,95.242L114.219,95.242z"/>
			</g>
			<g>
				<path fill="#FFEA9A" d="M127.802,78.998c-6.736,0-12.199,5.461-12.199,12.197c0,6.738,5.463,12.199,12.199,12.199
					S140,97.933,140,91.195C140,84.459,134.538,78.998,127.802,78.998z M127.802,98.066c-3.794,0-6.871-3.075-6.871-6.871
					c0-3.793,3.077-6.87,6.871-6.87c3.795,0,6.871,3.076,6.871,6.87C134.673,94.991,131.597,98.066,127.802,98.066z"/>
			</g>
			<g>
				<path fill="#F26E91" d="M110.623,73.159c-6.161,5.312-7.423,14.528-2.67,21.344c4.755,6.815,13.841,8.81,20.951,4.863
					L110.623,73.159z"/>
			</g>
			<g>
				<path fill="#E05C7E" d="M110.623,73.159c-1.223,1.056-2.248,2.264-3.076,3.576l15.788,22.631
					c-1.587,0.881-3.271,1.462-4.982,1.765c3.521,0.619,7.251,0.069,10.552-1.765L110.623,73.159z"/>
			</g>
			<g>
				<path fill="#90DE97" d="M92.021,99.687c-1.906-3.533-4.768-7.482-7.913-7.128c-5.604,0.631-2.122,7.19-2.122,7.19
					s-7.893-9.887-11.917-8.151c-4.025,1.736-1.668,7.458-1.668,7.458s-11.982-4.95-14.042,2.029
					c-2.059,6.977,10.69,9.328,10.69,9.328s-5.086,2.968-2.649,6.611s14.434-0.373,14.434-0.373s-6.487,3.618-2.123,7.188
					c4.364,3.574,15.387-4.811,15.387-4.811l7.172-5.836l-2.854-8.235C94.415,104.956,93.51,102.449,92.021,99.687"/>
			</g>
			<g>
				<path fill="#B5EBB9" d="M111.983,91.609c5.605,0.632,2.123,7.189,2.123,7.189s7.894-9.887,11.917-8.151
					c4.024,1.736,1.668,7.458,1.668,7.458s11.981-4.949,14.042,2.03c2.06,6.977-10.689,9.328-10.689,9.328s5.085,2.968,2.649,6.61
					c-2.437,3.646-14.433-0.373-14.433-0.373s6.484,3.616,2.122,7.191c-4.365,3.571-15.39-4.814-15.39-4.814l-7.169-5.276
					l2.852-8.795C101.676,104.007,106.381,90.98,111.983,91.609L111.983,91.609z"/>
			</g>
			<g>
				<path fill="#90DE97" d="M141.733,100.136c-1.175-3.986-5.59-4.08-9.158-3.429c1.654,0.455,3.01,1.473,3.588,3.429
					c2.061,6.977-10.689,9.328-10.689,9.328s5.088,2.968,2.649,6.61c-0.422,0.634-1.133,1.034-2.018,1.265
					c3.147,0.469,6.437,0.458,7.588-1.265c2.436-3.643-2.649-6.61-2.649-6.61S143.793,107.112,141.733,100.136z"/>
			</g>
			<g>
				<path fill="#F26E91" d="M78.196,106.104c3.382,5.865,13.562,9.708,20.466,6.617c7.584-3.395,11.246-11.944,8.7-19.67
					L78.196,106.104z"/>
			</g>
			<g>
				<path fill="#E05C7E" d="M107.362,93.051l-5.009,2.242c1.244,7.076-2.406,14.361-9.262,17.428
					c-0.88,0.396-1.814,0.676-2.78,0.854c2.894,0.475,5.838,0.271,8.351-0.854C106.246,109.327,109.908,100.777,107.362,93.051
					L107.362,93.051z"/>
			</g>
			<g>
				<path fill="#FDFCFC" d="M97.724,113.24l-37.283,3.557l12.498,12.182h24.785h24.784l12.496-12.182L97.724,113.24z"/>
			</g>
			<g>
				<path fill="#7191F0" d="M120.953,135.566H74.496c-1.86,0-3.367-1.322-3.367-3.183v-0.038c0-1.86,1.507-3.367,3.367-3.367h46.457
					c1.857,0,3.366,1.507,3.366,3.367v0.038C124.319,134.244,122.811,135.566,120.953,135.566z"/>
			</g>
			<g>
				<path fill="#7191F0" d="M140.177,116.797H55.27c-2.036,0-3.687-1.65-3.687-3.687v-0.299c0-2.035,1.65-3.688,3.687-3.688h84.907
					c2.036,0,3.688,1.652,3.688,3.688v0.299C143.864,115.146,142.213,116.797,140.177,116.797z"/>
			</g>
			<g>
				<path fill="#EEF0F0" d="M129.161,117.064l-12.226,11.914h5.572l12.223-11.914H129.161z"/>
			</g>
			<g>
				<path fill="#6084F0" d="M120.953,128.979h-5.571c1.859,0,3.368,1.508,3.368,3.367v0.039c0,1.859-1.509,3.182-3.368,3.182h5.571
					c1.857,0,3.366-1.322,3.366-3.182v-0.039C124.319,130.485,122.811,128.979,120.953,128.979z"/>
			</g>
			<g>
				<path fill="#6084F0" d="M140.177,109.124h-5.571c2.037,0,3.687,1.652,3.687,3.688v0.299c0,2.036-1.649,3.687-3.687,3.687h5.571
					c2.036,0,3.688-1.65,3.688-3.687v-0.299C143.864,110.776,142.213,109.124,140.177,109.124z"/>
			</g>
			<g>
				<path d="M99.029,102.813l2.849,1.086c0.163,0.063,0.331,0.093,0.497,0.093c0.56,0,1.088-0.341,1.3-0.896
					c0.274-0.719-0.085-1.524-0.804-1.798l-2.848-1.086c-0.721-0.275-1.525,0.084-1.799,0.803
					C97.951,101.734,98.31,102.539,99.029,102.813L99.029,102.813z"/>
				<path d="M140.177,107.732h-0.758c1.329-0.865,2.478-1.926,3.186-3.223c0.805-1.479,0.962-3.084,0.463-4.77
					c-0.456-1.552-1.339-2.742-2.627-3.545c0.626-1.584,0.953-3.287,0.953-5c0-7.494-6.097-13.589-13.592-13.589
					c-3.627,0-7.062,1.438-9.603,3.98l-6.434-9.223c-0.227-0.323-0.578-0.536-0.969-0.584c-0.392-0.05-0.784,0.069-1.083,0.327
					c-1.749,1.508-3.167,3.342-4.188,5.382c-1.434,0.14-2.774,0.763-3.826,1.419c-0.24-2.228-0.808-5.434-2.157-8.026
					c-0.354-0.683-1.195-0.948-1.877-0.593c-0.682,0.354-0.948,1.194-0.592,1.877c1.953,3.759,2.014,9.392,2.014,9.447
					c0.001,0.563,0.344,1.068,0.863,1.281c0.171,0.07,0.352,0.104,0.527,0.104c0.364,0,0.723-0.143,0.988-0.41
					c0.017-0.018,1.285-1.262,2.843-1.931c-0.184,0.658-0.331,1.328-0.435,2.008c-0.518,3.352-0.04,6.766,1.339,9.824l-12.496,5.594
					c-2.84-4.92-5.786-7.242-8.766-6.907c-0.843,0.095-1.52,0.307-2.066,0.58c-2.243-3.575-3.12-6.361-2.346-7.529
					c0.29-0.44,1.175-1.776,3.847-1.174c1.583,0.358,2.929,1.199,2.94,1.206c0.474,0.304,1.083,0.291,1.544-0.031
					c0.461-0.321,0.685-0.889,0.564-1.439c-0.188-0.867-0.421-2.358-0.515-4.046c0-0.04-0.002-0.08-0.005-0.119
					c-0.139-2.72,0.092-5.916,1.455-7.811c0.711-0.99,1.676-1.538,2.95-1.679c0.392-0.043,0.769-0.042,1.12,0.003
					c0.763,0.1,1.46-0.44,1.559-1.203c0.099-0.763-0.44-1.461-1.203-1.559c-0.57-0.074-1.169-0.076-1.782-0.01
					c-2.073,0.23-3.723,1.179-4.905,2.822c-1.155,1.606-1.814,3.837-1.975,6.643c-2.169-1.399-4.693-2.151-7.343-2.151
					c-7.493,0-13.59,6.097-13.59,13.591c0,2.637,0.755,5.185,2.183,7.386c-0.093,0.755-0.069,1.527,0.027,2.258
					c-2.71-0.778-7.032-1.598-10.101-0.131c-1.648,0.789-2.754,2.104-3.287,3.909c-0.916,3.101,0.466,5.408,2.393,7.044H55.27
					c-2.801,0-5.079,2.277-5.079,5.079v0.299c0,2.801,2.278,5.079,5.079,5.079h4.605l11.168,10.884
					c-0.81,0.854-1.308,2.007-1.308,3.272v0.039c0,2.563,2.091,4.574,4.76,4.574h46.457c2.668,0,4.76-2.011,4.76-4.574v-0.039
					c0-1.267-0.499-2.418-1.309-3.272l11.167-10.884h4.607c2.799,0,5.078-2.278,5.078-5.079v-0.299
					C145.255,110.01,142.978,107.732,140.177,107.732L140.177,107.732z M140.158,103.175c-0.935,1.713-3.592,3.318-7.293,4.402
					c-0.123,0.037-0.237,0.091-0.343,0.155h-25.888c2.675-4.007,3.569-8.884,2.481-13.574c0.983-0.864,1.896-1.257,2.713-1.165
					c1.366,0.154,1.651,0.694,1.746,0.87c0.589,1.111-0.218,3.367-0.699,4.282c-0.337,0.638-0.136,1.423,0.466,1.818
					c0.601,0.394,1.405,0.265,1.852-0.295c2.266-2.837,5.772-6.235,8.23-7.413c0.105-0.033,0.209-0.079,0.304-0.138
					c0.702-0.292,1.304-0.381,1.744-0.191c0.69,0.298,1.596,0.93,1.509,2.973c-0.062,1.396-0.573,2.668-0.576,2.677
					c-0.216,0.521-0.095,1.117,0.304,1.514c0.396,0.399,0.993,0.52,1.513,0.305c1.879-0.773,7.399-2.468,10.363-1.049
					c0.916,0.44,1.51,1.155,1.813,2.184C140.683,101.494,140.604,102.357,140.158,103.175L140.158,103.175z M97.506,106.735
					l-1.246-2.784c-0.313-0.702-1.139-1.018-1.84-0.702c-0.702,0.313-1.016,1.136-0.702,1.839l1.184,2.645h-4.387l0.51-1.339
					c0.275-0.718-0.085-1.522-0.805-1.797c-0.719-0.274-1.523,0.085-1.797,0.805l-0.89,2.331h-6.479
					c-0.021-0.031-0.045-0.062-0.069-0.09c-0.258-0.299-0.503-0.609-0.737-0.931l26.195-11.724
					c0.924,4.347-0.193,9.001-3.064,12.459c-0.075,0.09-0.135,0.185-0.182,0.285h-5.64
					C97.662,107.417,97.653,107.062,97.506,106.735L97.506,106.735z M123.03,88.51c0.962-1.713,2.773-2.792,4.771-2.792
					c3.021,0,5.479,2.457,5.479,5.478c0,1.664-0.744,3.218-2.037,4.264c-0.053,0.042-0.101,0.088-0.145,0.136
					c-0.507,0.118-0.982,0.243-1.419,0.368c0.322-2.438-0.159-5.323-3.105-6.593c-0.897-0.388-1.903-0.427-3.027-0.118L123.03,88.51
					z M127.802,80.39c5.959,0,10.808,4.847,10.808,10.805c0,1.4-0.265,2.747-0.776,4.017c-0.876-0.166-1.792-0.214-2.711-0.182
					c0.612-1.167,0.941-2.476,0.941-3.835c0-4.557-3.706-8.262-8.262-8.262c-2.57,0-4.935,1.182-6.48,3.131l-1.5-2.151
					C121.87,81.668,124.75,80.39,127.802,80.39z M110.411,75.291l10.564,15.144c-1.036,0.644-2.154,1.513-3.357,2.608
					c-0.382,0.348-0.751,0.699-1.104,1.046c-0.07-0.524-0.218-1.039-0.474-1.521c-0.487-0.922-1.559-2.079-3.901-2.342
					c-1.426-0.161-2.858,0.296-4.269,1.36c-1.248-2.631-1.689-5.593-1.243-8.5C107.078,80.151,108.405,77.434,110.411,75.291
					L110.411,75.291z M79.906,93.827c-0.166,0.391-0.273,0.798-0.329,1.21c-0.352-0.347-0.722-0.699-1.103-1.046
					c-1.925-1.752-3.63-2.923-5.135-3.523c-0.014-0.023-0.028-0.047-0.044-0.068c-0.642-0.921-0.982-2.005-0.982-3.133
					c0-3.021,2.458-5.478,5.478-5.478c0.048,0,0.095,0.005,0.142,0.006c-0.253,0.262-0.492,0.556-0.715,0.894
					C75.667,85.033,76.548,88.678,79.906,93.827L79.906,93.827z M66.985,87.267c0-5.957,4.848-10.806,10.805-10.806
					c2.773,0,5.376,1.033,7.384,2.918c0.035,0.467,0.076,0.912,0.122,1.32c-1.044-0.363-2.205-0.603-3.355-0.578
					c-1.257-0.732-2.683-1.118-4.15-1.118c-4.556,0-8.263,3.706-8.263,8.263c0,0.99,0.175,1.958,0.512,2.869
					c-0.178,0.049-0.352,0.108-0.523,0.182c-0.692,0.298-1.247,0.686-1.689,1.136C67.274,90.138,66.985,88.721,66.985,87.267
					L66.985,87.267z M60.673,107.63c-4.014-1.677-5.69-3.749-4.98-6.152c0.304-1.029,0.897-1.744,1.815-2.184
					c2.961-1.419,8.483,0.276,10.36,1.048c0.519,0.214,1.115,0.095,1.513-0.302c0.398-0.395,0.519-0.993,0.307-1.513
					c-0.005-0.014-0.515-1.284-0.575-2.68c-0.09-2.044,0.816-2.676,1.506-2.973c1.986-0.856,7.245,3.946,10.278,7.742
					c0.448,0.563,1.248,0.689,1.849,0.294c0.601-0.391,0.804-1.177,0.47-1.813c-0.482-0.918-1.29-3.173-0.701-4.284
					c0.095-0.178,0.38-0.717,1.748-0.872c1.674-0.189,3.794,1.722,5.898,5.284l-12.534,5.608c-0.359,0.161-0.634,0.467-0.756,0.842
					c-0.121,0.376-0.078,0.786,0.119,1.126c0.183,0.315,0.379,0.625,0.582,0.931H60.871
					C60.809,107.693,60.744,107.658,60.673,107.63L60.673,107.63z M122.926,132.384c0,1.177-0.993,1.79-1.973,1.79H74.496
					c-0.981,0-1.975-0.613-1.975-1.79v-0.038c0-1.087,0.886-1.975,1.975-1.975h46.457c1.086,0,1.973,0.888,1.973,1.975V132.384z
					 M142.47,113.11c0,1.266-1.028,2.296-2.293,2.296H76.833c-0.77,0-1.394,0.622-1.394,1.391c0,0.77,0.624,1.393,1.394,1.393
					h54.749l-9.641,9.396h-0.987H74.496h-0.99l-9.641-9.396h7.396c0.769,0,1.393-0.623,1.393-1.393c0-0.769-0.624-1.391-1.393-1.391
					H55.27c-1.264,0-2.294-1.032-2.294-2.296v-0.299c0-1.265,1.03-2.294,2.294-2.294h84.907c1.265,0,2.293,1.029,2.293,2.294V113.11
					z"/>
				<path d="M111.122,87.753c0.02,0,0.037,0,0.057,0l2.621-0.104c0.768-0.029,1.366-0.677,1.337-1.445
					c-0.03-0.769-0.68-1.365-1.448-1.337l-2.619,0.103c-0.77,0.03-1.367,0.677-1.337,1.445
					C109.761,87.165,110.38,87.753,111.122,87.753L111.122,87.753z"/>
			</g>
		</g>
	</g>
	<circle fill="#1AC591" cx="141.244" cy="52.855" r="23.725"/>
	<g>
		<path fill="#1AC591" d="M148.876,64.267h-15.414c-0.941,0-1.708-0.765-1.708-1.71V51.678c0-0.944,0.767-1.71,1.708-1.71h15.414
			c0.945,0,1.708,0.766,1.708,1.71v10.879C150.584,63.501,149.821,64.267,148.876,64.267z"/>
		<path fill="#0B9A6E" d="M141.5,49.968h7.376c0.945,0,1.708,0.766,1.708,1.71v10.879c0,0.945-0.763,1.71-1.708,1.71H141.5"/>
		<path fill="#EFEFEF" d="M143.588,55.154c0-1.336-1.082-2.418-2.418-2.418c-1.337,0-2.418,1.082-2.418,2.418
			c0,0.814,0.404,1.535,1.023,1.974V61.5h2.791v-4.372C143.184,56.688,143.588,55.968,143.588,55.154z"/>
		<path fill="#1AC591" d="M146.169,46.76L146.169,46.76c-0.964,0-1.744-0.781-1.744-1.744V44.63c0-1.782-1.408-3.275-3.191-3.31
			c-1.823-0.035-3.318,1.438-3.318,3.254v5.393h-3.487v-5.307c0-3.711,2.966-6.792,6.675-6.828c3.75-0.036,6.81,3.002,6.81,6.741
			v0.442C147.912,45.979,147.13,46.76,146.169,46.76z"/>
		<g>
			<path fill="#231F20" d="M148.876,49.271h-10.264v-4.696c0-0.69,0.271-1.339,0.769-1.824c0.493-0.487,1.147-0.744,1.838-0.732
				c1.382,0.025,2.51,1.197,2.51,2.61v0.388c0,1.345,1.095,2.441,2.44,2.441c1.345,0,2.441-1.096,2.441-2.441v-0.442
				c0-1.999-0.785-3.875-2.209-5.284c-1.404-1.392-3.261-2.155-5.231-2.155c-0.024,0-0.047,0-0.073,0
				c-4.063,0.039-7.366,3.416-7.366,7.525v4.61h-0.269c-1.324,0-2.405,1.08-2.405,2.407v10.879c0,1.328,1.081,2.407,2.405,2.407
				h15.414c1.328,0,2.407-1.08,2.407-2.407V51.678C151.283,50.351,150.204,49.271,148.876,49.271z M135.126,44.661
				c0-3.349,2.686-6.099,5.984-6.131c0.019,0,0.041,0,0.06,0c1.602,0,3.107,0.621,4.251,1.751c1.154,1.146,1.795,2.67,1.795,4.293
				v0.442c0,0.577-0.47,1.046-1.047,1.046c-0.579,0-1.047-0.47-1.047-1.046v-0.388c0-2.168-1.738-3.965-3.876-4.005
				c-1.07-0.021-2.079,0.382-2.844,1.131c-0.763,0.751-1.184,1.752-1.184,2.82v4.696h-2.093V44.661L135.126,44.661z M149.89,62.557
				c0,0.559-0.457,1.012-1.014,1.012h-15.414c-0.558,0-1.011-0.454-1.011-1.012V51.678c0-0.558,0.453-1.012,1.011-1.012h15.414
				c0.557,0,1.014,0.454,1.014,1.012V62.557L149.89,62.557z"/>
			<path fill="#231F20" d="M141.17,52.038c-1.717,0-3.113,1.397-3.113,3.116c0,0.881,0.374,1.719,1.021,2.306v4.04
				c0,0.385,0.313,0.698,0.697,0.698h2.791c0.384,0,0.696-0.313,0.696-0.698v-4.04c0.646-0.587,1.022-1.425,1.022-2.306
				C144.285,53.435,142.888,52.038,141.17,52.038z M142.161,56.559c-0.186,0.13-0.293,0.342-0.293,0.569v3.674h-1.396v-3.674
				c0-0.227-0.112-0.439-0.296-0.569c-0.455-0.324-0.729-0.848-0.729-1.405c0-0.95,0.772-1.721,1.722-1.721
				c0.95,0,1.72,0.771,1.72,1.721C142.89,55.71,142.619,56.234,142.161,56.559z"/>
			<path fill="#231F20" d="M153.675,48.893l-2.437-1.406c-0.333-0.192-0.759-0.079-0.952,0.255
				c-0.194,0.335-0.077,0.761,0.254,0.954l2.438,1.406c0.11,0.063,0.229,0.095,0.348,0.095c0.242,0,0.475-0.126,0.605-0.349
				C154.122,49.513,154.009,49.086,153.675,48.893z"/>
			<path fill="#231F20" d="M150.892,45.999c0.119,0,0.237-0.03,0.347-0.093l2.437-1.406c0.334-0.194,0.447-0.62,0.256-0.955
				c-0.193-0.332-0.619-0.448-0.953-0.253l-2.438,1.407c-0.331,0.191-0.448,0.618-0.254,0.952
				C150.414,45.875,150.649,45.999,150.892,45.999z"/>
		</g>
	</g>
	<g>
		<path fill="#9C9C9C" d="M166.483,29.129c0,0.396-0.32,0.716-0.716,0.716h-3.73c-0.395,0-0.716-0.32-0.716-0.716l0,0
			c0-0.396,0.321-0.716,0.716-0.716h3.73C166.163,28.414,166.483,28.733,166.483,29.129L166.483,29.129z"/>
		<path fill="#9C9C9C" d="M174.238,29.129c0,0.396-0.319,0.716-0.715,0.716h-3.729c-0.396,0-0.716-0.32-0.716-0.716l0,0
			c0-0.396,0.32-0.716,0.716-0.716h3.729C173.919,28.414,174.238,28.733,174.238,29.129L174.238,29.129z"/>
		<path fill="#9C9C9C" d="M167.782,27.833c-0.397,0-0.716-0.322-0.716-0.716v-3.729c0-0.396,0.318-0.716,0.716-0.716l0,0
			c0.394,0,0.716,0.319,0.716,0.716v3.729C168.498,27.51,168.176,27.833,167.782,27.833L167.782,27.833z"/>
		<path fill="#9C9C9C" d="M167.782,35.588c-0.397,0-0.716-0.321-0.716-0.716v-3.731c0-0.395,0.318-0.716,0.716-0.716l0,0
			c0.394,0,0.716,0.321,0.716,0.716v3.731C168.498,35.267,168.176,35.588,167.782,35.588L167.782,35.588z"/>
	</g>
	<g>
		<g>
			<path fill="#9C9C9C" d="M40.772,51.699H28.753c-1.104,0-2.003-0.898-2.003-2.004v-9.348c0-1.103,0.899-2.002,2.003-2.002h12.019
				c1.104,0,2.003,0.899,2.003,2.002v9.348C42.775,50.801,41.876,51.699,40.772,51.699z M28.753,39.68
				c-0.367,0-0.667,0.3-0.667,0.667v9.348c0,0.37,0.3,0.668,0.667,0.668h12.019c0.367,0,0.667-0.299,0.667-0.668v-9.348
				c0-0.367-0.3-0.667-0.667-0.667H28.753z"/>
			<path fill="#9C9C9C" d="M39.437,39.68c-0.368,0-0.668-0.299-0.668-0.667v-3.338c0-2.209-1.796-4.007-4.005-4.007
				c-2.209,0-4.006,1.797-4.006,4.007v3.338c0,0.368-0.3,0.667-0.668,0.667c-0.368,0-0.668-0.299-0.668-0.667v-3.338
				c0-2.946,2.397-5.342,5.343-5.342s5.342,2.396,5.342,5.342v3.338C40.105,39.381,39.805,39.68,39.437,39.68z"/>
			<path fill="#9C9C9C" d="M34.763,45.466c-0.983,0-1.781-0.798-1.781-1.78s0.798-1.781,1.781-1.781
				c0.982,0,1.781,0.799,1.781,1.781S35.746,45.466,34.763,45.466z M34.763,43.241c-0.244,0-0.445,0.2-0.445,0.445
				s0.202,0.445,0.445,0.445c0.245,0,0.445-0.2,0.445-0.445S35.008,43.241,34.763,43.241z"/>
			<path fill="#9C9C9C" d="M34.763,48.137c-0.368,0-0.667-0.299-0.667-0.667v-2.448c0-0.369,0.299-0.668,0.667-0.668
				s0.667,0.299,0.667,0.668v2.448C35.43,47.838,35.131,48.137,34.763,48.137z"/>
		</g>
		<g>
			<path fill="#9C9C9C" d="M42.017,52.592h0.709v1.419h-0.709V52.592z"/>
			<path fill="#9C9C9C" d="M43.614,50.816h1.42v0.71h-1.42V50.816z"/>
		</g>
	</g>
	<g enable-background="new    ">
		<path fill="#9C9C9C" d="M54.725,156.39c2.941,0.028,5.317,2.404,5.345,5.346c0.029,2.98-2.363,5.421-5.345,5.449H20.374
			c-2.942-0.028-5.318-2.405-5.346-5.345c-0.028-2.981,2.363-5.422,5.346-5.45c0.128,0,0.256,0.011,0.383,0.019
			c0.34-1.078,0.898-2.077,1.643-2.932c2.994-3.454,8.223-3.825,11.676-0.829c1.583-3.982,5.406-6.623,9.692-6.691
			c5.859-0.093,10.686,4.581,10.778,10.439C54.605,156.395,54.665,156.389,54.725,156.39L54.725,156.39z"/>
	</g>
</g>
</svg>
