<?xml version="1.0" encoding="utf-8"?>
<!-- Generator: Adobe Illustrator 16.0.0, SVG Export Plug-In . SVG Version: 6.00 Build 0)  -->
<svg version="1.1" id="Layer_1" xmlns="http://www.w3.org/2000/svg" xmlns:xlink="http://www.w3.org/1999/xlink" x="0px" y="0px"
	 width="50px" height="50px" viewBox="0 0 50 50" enable-background="new 0 0 50 50" xml:space="preserve">
<g>
	<g>
		<path fill="#BBBBBB" d="M25.685,39.074c-6.071,0.001-12.142-0.005-18.213,0.014c-0.486,0.002-0.574-0.146-0.569-0.591
			c0.027-2.175-0.106-4.361,0.41-6.501c1.829-7.57,6.499-12.426,14.027-14.418c3.753-0.993,7.48-0.664,11.109,0.738
			c0.403,0.156,0.526,0.266,0.334,0.739c-1.184,2.917-0.707,5.611,1.432,7.886c2.151,2.287,4.816,2.938,7.83,1.943
			c0.959-0.317,0.942-0.338,1.293,0.606c0.76,2.047,1.107,4.165,1.115,6.344c0.003,0.9-0.032,1.804,0.015,2.703
			c0.024,0.481-0.147,0.542-0.57,0.541c-5.169-0.012-10.339-0.006-15.509-0.005C27.487,39.074,26.586,39.074,25.685,39.074z
			 M9.609,34.021c0.389-0.025,0.68-0.22,0.779-0.642c0.058-0.246,0.073-0.503,0.133-0.748c0.582-2.382,1.509-4.577,3.112-6.493
			c1.141-1.361,2.376-2.573,3.884-3.507c0.517-0.32,0.668-0.755,0.413-1.188c-0.262-0.444-0.746-0.512-1.279-0.179
			c-2.21,1.383-4.02,3.171-5.419,5.371c-1.235,1.943-2.045,4.055-2.429,6.327C8.702,33.569,9.037,34.026,9.609,34.021z"/>
		<path fill="#8A8A8A" d="M25.708,10.529c0.441,0,0.883-0.016,1.323,0.005c0.516,0.024,0.848,0.357,0.777,0.863
			c-0.179,1.275-0.409,2.543-0.611,3.815c-0.035,0.226-0.184,0.197-0.338,0.197c-0.763-0.001-1.526-0.014-2.289,0.007
			c-0.267,0.007-0.351-0.093-0.39-0.335c-0.192-1.17-0.401-2.338-0.595-3.508c-0.105-0.633,0.215-1.023,0.851-1.042
			C24.859,10.519,25.283,10.528,25.708,10.529z"/>
		<path fill="#0C0D0D" d="M9.609,34.021c-0.573,0.005-0.908-0.451-0.805-1.059c0.383-2.272,1.193-4.384,2.428-6.327
			c1.399-2.2,3.209-3.988,5.419-5.371c0.533-0.333,1.017-0.266,1.279,0.179c0.255,0.433,0.104,0.868-0.413,1.188
			c-1.507,0.934-2.743,2.146-3.883,3.507c-1.603,1.916-2.53,4.111-3.113,6.493c-0.06,0.245-0.075,0.502-0.133,0.748
			C10.289,33.801,9.999,33.995,9.609,34.021z"/>
	</g>
	<g>
		<path fill="#0C0D0D" d="M49.366,39.971c-0.008-0.584-0.33-0.892-0.932-0.896c-0.578-0.004-1.159-0.034-1.733,0.012
			c-0.484,0.039-0.623-0.095-0.615-0.598c0.031-2.044,0.079-4.091-0.272-6.121c-0.265-1.526-0.692-3.004-1.299-4.427
			c-0.037-0.089-0.061-0.164-0.07-0.233c-0.478,0.392-1.004,0.725-1.568,0.991c0.192,0.047,0.275,0.274,0.467,0.791
			c0.761,2.048,1.107,4.165,1.115,6.344c0.004,0.901-0.032,1.805,0.015,2.703c0.025,0.481-0.148,0.542-0.569,0.541
			c-5.17-0.012-10.34-0.006-15.51-0.004c-0.901,0-1.803,0-2.704,0c-6.071,0.001-12.142-0.005-18.213,0.015
			c-0.486,0.001-0.575-0.146-0.569-0.592c0.027-2.175-0.106-4.361,0.411-6.501c1.829-7.57,6.498-12.426,14.027-14.418
			c3.752-0.993,7.479-0.664,11.108,0.738c0.276,0.106,0.421,0.191,0.423,0.386c0.279-0.592,0.632-1.142,1.049-1.637
			c-0.095,0.013-0.199-0.008-0.332-0.065c-1.422-0.617-2.904-1.047-4.435-1.297c-0.26-0.042-0.348-0.122-0.298-0.392
			c0.197-1.084,0.354-2.176,0.569-3.257c0.356-1.786-0.777-3.19-2.599-3.185c-0.851,0.002-1.701-0.008-2.55,0.004
			C23.2,8.89,22.29,9.596,21.968,10.625c-0.189,0.607-0.151,1.253-0.007,1.813c0.246,0.955,0.317,1.934,0.551,2.883
			c0.07,0.287-0.072,0.341-0.31,0.38c-0.873,0.143-1.729,0.352-2.574,0.615c-7.941,2.475-13.571,9.491-14.271,17.779
			c-0.129,1.528-0.053,3.058-0.067,4.587c-0.003,0.301-0.059,0.417-0.389,0.402c-0.645-0.03-1.292-0.014-1.938-0.011
			c-0.633,0.004-0.94,0.306-0.946,0.933c-0.006,0.595,0.014,1.19-0.003,1.784c-0.013,0.422,0.163,0.699,0.509,0.924
			c0.723,0.468,1.461,0.91,2.173,1.398c0.656,0.45,1.382,0.71,2.259,0.703c6.239-0.048,12.478-0.025,18.717-0.025
			c6.46,0,12.92-0.001,19.381,0.001c0.258,0,0.502-0.011,0.733-0.156c1.044-0.663,2.094-1.318,3.145-1.973
			c0.301-0.188,0.44-0.449,0.436-0.806C49.359,41.229,49.373,40.601,49.366,39.971z M24.439,10.531
			c0.424-0.012,0.849-0.002,1.273-0.002c0.44,0.001,0.883-0.015,1.323,0.006c0.516,0.024,0.848,0.357,0.776,0.863
			c-0.177,1.275-0.407,2.543-0.609,3.815c-0.036,0.226-0.185,0.197-0.339,0.197c-0.763-0.001-1.526-0.014-2.289,0.007
			c-0.267,0.007-0.351-0.093-0.391-0.335c-0.191-1.17-0.401-2.338-0.595-3.508C23.483,10.939,23.803,10.549,24.439,10.531z
			 M47.445,41.681c-0.74,0.413-1.465,0.859-2.176,1.322c-0.282,0.183-0.604,0.184-0.877,0.177
			c-4.636-0.119-9.271-0.028-13.907-0.039c-7.927-0.021-15.854-0.006-23.779-0.008c-0.15,0-0.304,0.027-0.447-0.06
			c-0.813-0.495-1.63-0.98-2.439-1.48c-0.28-0.173-0.148-0.472-0.13-0.701c0.023-0.286,0.297-0.152,0.453-0.152
			c7.19-0.008,14.38-0.007,21.571-0.007c7.156,0,14.313-0.001,21.47,0.008c0.171,0,0.463-0.149,0.508,0.146
			C47.731,41.16,47.817,41.474,47.445,41.681z"/>
		<g>
			<g>
				<path fill="#8A8A8A" d="M25.713,40.803c7.156,0,14.313-0.002,21.469,0.008c0.172,0,0.464-0.149,0.508,0.146
					c0.041,0.273,0.127,0.587-0.244,0.794c-0.741,0.414-1.465,0.86-2.177,1.322c-0.282,0.184-0.604,0.184-0.877,0.177
					c-4.636-0.119-9.271-0.027-13.906-0.039c-7.928-0.02-15.854-0.006-23.78-0.007c-0.15,0-0.304,0.027-0.447-0.061
					c-0.813-0.494-1.63-0.98-2.439-1.479c-0.28-0.174-0.148-0.473-0.13-0.702c0.023-0.285,0.296-0.152,0.452-0.152
					C11.333,40.802,18.523,40.803,25.713,40.803z"/>
			</g>
		</g>
	</g>
	<path fill="#919191" d="M43.749,30.701c-1.844-6.216-6.745-11.116-12.962-12.958c-0.577,1.247-0.901,2.636-0.901,4.101
		c0,5.39,4.369,9.76,9.76,9.76C41.112,31.604,42.502,31.28,43.749,30.701z"/>
	<circle fill="#0C0D0D" cx="39.573" cy="21.896" r="7.72"/>
	<circle fill="#E34343" cx="39.573" cy="21.895" r="6.152"/>
	<path opacity="0.5" fill="#919191" enable-background="new    " d="M44.193,39.088c0.305-0.113,0.288-0.398,0.305-0.617
		c0.003-0.988-0.023-2.9-0.15-4.665c-0.112-1.049-0.304-2.1-0.599-3.104l-3.352,0.918c0,0,0.437,1.276,0.343,7.454L44.193,39.088z"
		/>
</g>

</svg>
