<?xml version="1.0" encoding="utf-8"?>
<!-- Generator: Adobe Illustrator 16.0.0, SVG Export Plug-In . SVG Version: 6.00 Build 0)  -->
<svg version="1.1" id="Layer_1" xmlns="http://www.w3.org/2000/svg" xmlns:xlink="http://www.w3.org/1999/xlink" x="0px" y="0px"
	 width="50px" height="50px" viewBox="0 0 50 50" enable-background="new 0 0 50 50" xml:space="preserve">


<g>
	<g>
		<g>
			<defs>
				<rect id="SVGID_1_" x="8.151" y="21.01" width="36.669" height="18.064"/>
			</defs>
			<clipPath id="SVGID_2_">
				<use xlink:href="#SVGID_1_"  overflow="visible"/>
			</clipPath>
			<g clip-path="url(#SVGID_2_)">
				<g>
					<path fill="#FFEA9A" d="M19.337,26.844c-2.545,0-4.608,2.049-4.608,4.571c0,2.156,1.507,3.962,3.533,4.442v-2.099
						c-0.896-0.407-1.521-1.302-1.521-2.344c0-1.421,1.163-2.575,2.596-2.575c1.088,0,2.019,0.665,2.404,1.607h2.098
						C23.393,28.388,21.548,26.844,19.337,26.844z"/>
				</g>
				<g>
					<path fill="#15A977" d="M18.903,35.956c0.691-2.308,3.205-0.351,3.205-0.351s-3.588-4.06-2.548-5.619s3.284-0.14,3.284-0.14
						s-1.188-5.405,1.924-5.745c3.111-0.34,3.14,5.19,3.14,5.19s1.879-1.871,3.237-0.573c1.356,1.298-1.254,6.033-1.254,6.033
						s2.024-2.452,3.208-0.352c1.181,2.103-3.206,6.103-3.206,6.103l-3.015,2.364l-3.507-1.652
						C23.371,41.217,18.21,38.263,18.903,35.956L18.903,35.956z"/>
				</g>
				<g>
					<path fill="#13A071" d="M33.099,34.4c-1.184-2.101-3.208,0.352-3.208,0.352s2.612-4.735,1.254-6.033s-3.237,0.573-3.237,0.573
						s-0.029-5.53-3.14-5.19c-0.976,0.106-1.529,0.713-1.828,1.495c0.069-0.014,0.141-0.025,0.214-0.033
						c1.815-0.199,2.581,1.6,2.905,3.133c0.174,0.831,1.025,1.311,1.852,1.094c0.528-0.138,1.112-0.097,1.621,0.391
						c0.749,0.715,0.292,2.474-0.271,3.91c-0.196,0.502,0.23,1.04,0.765,0.943c0.507-0.092,1.036,0.078,1.46,0.827
						c0.831,1.482-1.101,3.904-2.314,5.207l0.722-0.565C29.893,40.503,34.279,36.503,33.099,34.4L33.099,34.4z"/>
				</g>
				<g>
					<path fill="#FFEA9A" d="M38.229,28.317c-2.545,0-4.61,2.046-4.61,4.569c0,2.522,2.065,4.569,4.61,4.569
						c2.544,0,4.606-2.047,4.606-4.569C42.835,30.363,40.772,28.317,38.229,28.317z M38.229,35.459
						c-1.435,0-2.597-1.151-2.597-2.572c0-1.422,1.162-2.575,2.597-2.575c1.434,0,2.593,1.153,2.593,2.575
						C40.821,34.308,39.662,35.459,38.229,35.459z"/>
				</g>
				<g>
					<path fill="#F26E91" d="M31.74,26.131c-2.33,1.988-2.807,5.44-1.011,7.995c1.797,2.553,5.228,3.298,7.916,1.821L31.74,26.131z"
						/>
				</g>
				<g>
					<path fill="#E05C7E" d="M31.74,26.131c-0.463,0.394-0.851,0.848-1.164,1.337l5.965,8.479c-0.6,0.328-1.236,0.547-1.884,0.66
						c1.33,0.23,2.739,0.026,3.988-0.66L31.74,26.131z"/>
				</g>
				<g>
					<path fill="#90DE97" d="M24.711,36.066c-0.719-1.324-1.799-2.803-2.988-2.67c-2.116,0.236-0.801,2.692-0.801,2.692
						s-2.982-3.703-4.502-3.053c-1.52,0.649-0.629,2.793-0.629,2.793s-4.526-1.854-5.303,0.762
						c-0.778,2.612,4.037,3.492,4.037,3.492s-1.922,1.113-1.001,2.478c0.92,1.365,5.452-0.14,5.452-0.14s-2.45,1.355-0.801,2.692
						c1.647,1.339,5.812-1.802,5.812-1.802l2.709-2.187l-1.078-3.085C25.617,38.04,25.274,37.101,24.711,36.066"/>
				</g>
				<g>
					<path fill="#B5EBB9" d="M32.254,33.041c2.116,0.235,0.801,2.693,0.801,2.693s2.981-3.703,4.5-3.054
						c1.521,0.65,0.631,2.794,0.631,2.794s4.525-1.854,5.307,0.76c0.776,2.614-4.038,3.494-4.038,3.494s1.917,1.112,0.999,2.476
						c-0.921,1.367-5.45-0.138-5.45-0.138s2.447,1.354,0.8,2.69c-1.649,1.341-5.813-1.8-5.813-1.8l-2.71-1.978l1.08-3.294
						C28.36,37.686,30.137,32.806,32.254,33.041L32.254,33.041z"/>
				</g>
				<g>
					<path fill="#90DE97" d="M43.49,36.234c-0.443-1.494-2.11-1.527-3.46-1.285c0.626,0.17,1.139,0.553,1.355,1.285
						c0.776,2.614-4.038,3.494-4.038,3.494s1.922,1.112,1.002,2.476c-0.16,0.237-0.428,0.389-0.764,0.475
						c1.189,0.175,2.432,0.172,2.867-0.475c0.918-1.363-0.999-2.476-0.999-2.476S44.269,38.849,43.49,36.234z"/>
				</g>
				<g>
					<path fill="#F26E91" d="M19.49,38.47c1.278,2.197,5.123,3.638,7.73,2.481c2.864-1.273,4.248-4.478,3.287-7.37L19.49,38.47z"/>
				</g>
				<g>
					<path fill="#E05C7E" d="M30.508,33.581l-1.892,0.84c0.468,2.65-0.91,5.38-3.5,6.53c-0.333,0.146-0.685,0.252-1.049,0.317
						c1.093,0.178,2.205,0.101,3.153-0.317C30.085,39.68,31.469,36.474,30.508,33.581L30.508,33.581z"/>
				</g>
				<g>
					<path fill="#7191F0" d="M42.901,42.477H10.83c-0.769,0-1.393-0.62-1.393-1.382v-0.111c0-0.763,0.624-1.381,1.393-1.381h32.071
						c0.77,0,1.393,0.618,1.393,1.381v0.111C44.294,41.856,43.671,42.477,42.901,42.477z"/>
				</g>
				<g>
					<path fill="#6084F0" d="M42.901,39.602h-2.104c0.77,0,1.395,0.619,1.395,1.382v0.111c0,0.762-0.625,1.382-1.395,1.382h2.104
						c0.77,0,1.393-0.62,1.393-1.382v-0.111C44.294,40.221,43.671,39.602,42.901,39.602z"/>
				</g>
				<g>
					<path d="M27.359,37.237l1.075,0.407c0.063,0.024,0.126,0.033,0.188,0.033c0.213,0,0.412-0.127,0.493-0.334
						c0.102-0.271-0.033-0.569-0.305-0.674l-1.076-0.407c-0.271-0.103-0.575,0.031-0.68,0.301
						C26.952,36.834,27.088,37.137,27.359,37.237L27.359,37.237z"/>
					<path d="M41.163,42.996h1.738c1.058,0,1.919-0.852,1.919-1.901v-0.111c0-1.05-0.861-1.903-1.919-1.903l0,0h-0.287
						c0.503-0.323,0.937-0.721,1.204-1.208c0.305-0.553,0.363-1.154,0.176-1.785c-0.173-0.583-0.509-1.027-0.991-1.329
						c0.236-0.593,0.358-1.229,0.358-1.871c0-2.809-2.303-5.093-5.133-5.093c-1.372,0-2.67,0.54-3.63,1.492l-2.43-3.454
						c-0.085-0.121-0.216-0.201-0.364-0.22c-0.147-0.018-0.298,0.025-0.41,0.122c-0.66,0.564-1.195,1.251-1.582,2.015
						c-0.539,0.055-1.046,0.288-1.445,0.532c-0.09-0.834-0.304-2.035-0.812-3.005c-0.136-0.256-0.453-0.355-0.71-0.222
						c-0.259,0.134-0.358,0.447-0.225,0.703c0.738,1.408,0.761,3.519,0.761,3.539c0.001,0.211,0.131,0.399,0.325,0.479
						c0.064,0.026,0.133,0.039,0.2,0.039c0.138,0,0.273-0.054,0.371-0.153c0.009-0.007,0.488-0.472,1.075-0.723
						c-0.069,0.245-0.124,0.497-0.163,0.753c-0.195,1.255-0.017,2.532,0.507,3.679l-4.721,2.095
						c-1.074-1.843-2.186-2.711-3.312-2.586c-0.318,0.035-0.574,0.114-0.781,0.217c-0.847-1.339-1.177-2.383-0.886-2.821
						c0.11-0.163,0.443-0.665,1.454-0.439c0.598,0.135,1.106,0.45,1.11,0.452c0.178,0.114,0.408,0.108,0.583-0.012
						c0.174-0.121,0.259-0.334,0.214-0.539c-0.073-0.325-0.159-0.886-0.196-1.515c0-0.015,0-0.031-0.001-0.045
						c-0.052-1.02,0.034-2.218,0.55-2.926c0.267-0.372,0.632-0.577,1.113-0.63c0.148-0.016,0.291-0.016,0.423,0.001
						c0.288,0.04,0.552-0.164,0.588-0.45c0.037-0.285-0.166-0.547-0.454-0.584c-0.216-0.027-0.441-0.027-0.673-0.002
						c-0.784,0.085-1.406,0.441-1.853,1.057c-0.436,0.601-0.685,1.437-0.745,2.489c-0.819-0.523-1.772-0.808-2.773-0.808
						c-2.831,0-5.133,2.284-5.133,5.093c0,0.987,0.285,1.941,0.823,2.766c-0.034,0.283-0.026,0.571,0.01,0.848
						c-1.022-0.293-2.656-0.6-3.814-0.051c-0.624,0.295-1.041,0.788-1.242,1.464c-0.346,1.162,0.176,2.026,0.904,2.639H10.83
						c-1.058,0-1.918,0.854-1.918,1.903v0.111c0,1.05,0.86,1.903,1.918,1.903h1.741 M42.895,37.373
						c-0.352,0.641-1.356,1.244-2.755,1.649c-0.047,0.011-0.089,0.033-0.131,0.058h-9.777c1.011-1.499,1.349-3.327,0.938-5.085
						c0.371-0.322,0.717-0.47,1.023-0.435c0.518,0.058,0.626,0.258,0.659,0.325c0.223,0.416-0.081,1.262-0.26,1.604
						c-0.128,0.239-0.054,0.532,0.173,0.68c0.229,0.149,0.53,0.103,0.7-0.11c0.855-1.063,2.181-2.334,3.109-2.776
						c0.039-0.013,0.076-0.03,0.115-0.051c0.266-0.109,0.492-0.144,0.656-0.072c0.262,0.111,0.604,0.349,0.571,1.114
						c-0.025,0.523-0.217,0.999-0.219,1.003c-0.079,0.194-0.033,0.418,0.117,0.565c0.149,0.149,0.374,0.194,0.569,0.116
						c0.71-0.291,2.798-0.926,3.914-0.394c0.345,0.164,0.572,0.433,0.685,0.817C43.093,36.742,43.064,37.067,42.895,37.373
						L42.895,37.373z M26.784,38.707l-0.47-1.042c-0.119-0.264-0.431-0.381-0.696-0.266c-0.266,0.118-0.383,0.428-0.266,0.691
						l0.448,0.989h-1.657l0.193-0.5c0.103-0.271-0.033-0.571-0.305-0.675c-0.271-0.103-0.576,0.032-0.679,0.303l-0.336,0.872H20.57
						c-0.008-0.011-0.017-0.022-0.026-0.033c-0.098-0.112-0.19-0.229-0.279-0.35l9.895-4.39c0.35,1.626-0.073,3.37-1.158,4.666
						c-0.026,0.034-0.051,0.069-0.068,0.106h-2.129C26.843,38.961,26.839,38.83,26.784,38.707L26.784,38.707z M36.425,31.88
						c0.362-0.643,1.049-1.046,1.802-1.046c1.143,0,2.07,0.921,2.07,2.053c0,0.621-0.279,1.204-0.769,1.596
						c-0.021,0.016-0.039,0.034-0.055,0.051c-0.191,0.045-0.371,0.092-0.535,0.139c0.12-0.913-0.061-1.995-1.175-2.471
						c-0.338-0.144-0.718-0.159-1.144-0.043L36.425,31.88z M38.229,28.84c2.25,0,4.08,1.815,4.08,4.047
						c0,0.522-0.099,1.028-0.292,1.503c-0.33-0.062-0.678-0.078-1.023-0.067c0.229-0.437,0.356-0.928,0.356-1.436
						c0-1.709-1.401-3.097-3.121-3.097c-0.972,0-1.865,0.442-2.449,1.173l-0.565-0.805C35.987,29.318,37.076,28.84,38.229,28.84z
						 M31.658,26.928l3.994,5.673c-0.396,0.241-0.817,0.565-1.271,0.979c-0.146,0.129-0.286,0.262-0.416,0.393
						c-0.028-0.198-0.085-0.391-0.182-0.572c-0.184-0.345-0.588-0.778-1.473-0.877c-0.538-0.06-1.079,0.111-1.612,0.51
						c-0.472-0.986-0.64-2.096-0.47-3.184C30.399,28.748,30.901,27.73,31.658,26.928L31.658,26.928z M20.136,33.87
						c-0.063,0.147-0.103,0.301-0.124,0.456c-0.133-0.131-0.271-0.264-0.418-0.393c-0.725-0.657-1.37-1.094-1.939-1.32
						c-0.005-0.009-0.01-0.017-0.016-0.025c-0.242-0.346-0.371-0.751-0.371-1.173c0-1.132,0.928-2.055,2.07-2.055
						c0.018,0,0.035,0.004,0.053,0.004c-0.095,0.098-0.187,0.209-0.27,0.335C18.535,30.576,18.868,31.941,20.136,33.87L20.136,33.87
						z M15.256,31.415c0-2.233,1.831-4.049,4.082-4.049c1.046,0,2.03,0.387,2.789,1.093c0.013,0.176,0.028,0.342,0.046,0.495
						c-0.395-0.135-0.834-0.227-1.268-0.217c-0.476-0.274-1.014-0.418-1.567-0.418c-1.721,0-3.122,1.389-3.122,3.096
						c0,0.369,0.065,0.731,0.193,1.073c-0.067,0.019-0.133,0.041-0.197,0.069c-0.263,0.112-0.472,0.256-0.638,0.426
						C15.365,32.49,15.256,31.96,15.256,31.415L15.256,31.415z M12.871,39.041c-1.515-0.629-2.149-1.402-1.881-2.305
						c0.115-0.385,0.339-0.653,0.686-0.817c1.119-0.532,3.204,0.103,3.913,0.392c0.197,0.081,0.421,0.038,0.572-0.111
						c0.15-0.147,0.197-0.372,0.117-0.568c-0.002-0.003-0.195-0.479-0.219-1.002c-0.033-0.766,0.31-1.003,0.57-1.115
						c0.75-0.319,2.736,1.479,3.881,2.901c0.169,0.21,0.473,0.258,0.699,0.11c0.228-0.147,0.304-0.442,0.178-0.682
						c-0.182-0.342-0.487-1.188-0.264-1.604c0.035-0.067,0.143-0.269,0.66-0.325c0.632-0.07,1.433,0.645,2.228,1.978l-4.735,2.103
						c-0.135,0.06-0.239,0.174-0.286,0.313c-0.045,0.143-0.029,0.295,0.046,0.423c0.07,0.119,0.144,0.234,0.219,0.349h-6.308
						C12.922,39.067,12.897,39.054,12.871,39.041L12.871,39.041z M14.079,42.996h2.792c0.29,0,0.525-0.231,0.525-0.52
						c0-0.287-0.236-0.522-0.525-0.522H10.83c-0.477,0-0.865-0.387-0.865-0.859v-0.111c0-0.475,0.389-0.859,0.865-0.859h32.071
						c0.478,0,0.867,0.385,0.867,0.859v0.111c0,0.473-0.39,0.859-0.867,0.859H18.975c-0.291,0-0.526,0.235-0.526,0.522
						c0,0.288,0.235,0.52,0.526,0.52h20.68"/>
					<path d="M31.927,31.596c0.007,0,0.014,0,0.021,0l0.99-0.039c0.29-0.011,0.517-0.254,0.504-0.541
						c-0.009-0.288-0.255-0.512-0.546-0.501l-0.989,0.037c-0.29,0.014-0.517,0.254-0.505,0.544
						C31.412,31.376,31.646,31.596,31.927,31.596L31.927,31.596z"/>
				</g>
			</g>
		</g>
	</g>
	<g>
		<g>
			<g>
				<path fill="#8A8A8A" d="M25.749,40.683c7.142,0,14.287-0.002,21.43,0.005c0.172,0,0.461-0.147,0.507,0.147
					c0.041,0.273,0.126,0.587-0.244,0.794c-0.74,0.411-1.462,0.857-2.173,1.32c-0.28,0.181-0.604,0.181-0.874,0.176
					c-4.628-0.12-9.255-0.028-13.884-0.041c-7.911-0.019-15.824-0.006-23.736-0.006c-0.15,0-0.304,0.028-0.446-0.06
					c-0.812-0.493-1.628-0.979-2.435-1.478c-0.28-0.174-0.148-0.473-0.13-0.7c0.022-0.285,0.296-0.153,0.451-0.153
					C11.393,40.681,18.572,40.683,25.749,40.683z"/>
			</g>
		</g>
		<g>
			<g>
				<path fill="#BBBBBB" d="M22.49,28.41c-4.987,3.443-9.979,6.879-14.957,10.338c-0.399,0.276-0.554,0.203-0.802-0.165
					C5.52,36.781,4.17,35.06,3.382,33.01c-2.789-7.256-1.705-13.893,3.352-19.797c2.521-2.943,5.77-4.787,9.545-5.692
					c0.419-0.101,0.583-0.081,0.692,0.417c0.682,3.069,2.6,5.012,5.648,5.668c3.063,0.66,5.622-0.316,7.535-2.843
					c0.607-0.804,0.584-0.811,1.405-0.234c1.787,1.251,3.271,2.794,4.515,4.579c0.513,0.739,0.993,1.501,1.541,2.212
					c0.294,0.381,0.188,0.53-0.159,0.769c-4.255,2.92-8.498,5.856-12.745,8.788C23.971,27.387,23.23,27.898,22.49,28.41z
					 M6.417,33.372c0.305-0.241,0.434-0.566,0.276-0.968c-0.092-0.237-0.225-0.457-0.315-0.692
					c-0.872-2.286-1.354-4.616-1.123-7.099c0.166-1.766,0.494-3.46,1.203-5.083c0.243-0.556,0.121-1-0.334-1.21
					c-0.468-0.216-0.903,0.002-1.152,0.579c-1.032,2.389-1.505,4.883-1.407,7.484c0.086,2.298,0.618,4.49,1.591,6.574
					C5.416,33.516,5.949,33.7,6.417,33.372z"/>
				<path fill="#0C0D0D" d="M6.417,33.372c-0.467,0.328-1.001,0.144-1.262-0.415c-0.974-2.084-1.505-4.276-1.591-6.574
					c-0.098-2.601,0.376-5.095,1.409-7.484c0.248-0.576,0.683-0.794,1.151-0.579c0.456,0.21,0.578,0.654,0.334,1.21
					c-0.708,1.623-1.037,3.317-1.203,5.083c-0.23,2.482,0.251,4.813,1.123,7.099c0.09,0.235,0.223,0.455,0.315,0.692
					C6.85,32.806,6.722,33.131,6.417,33.372z"/>
			</g>
			<polygon fill="#BBBBBB" points="31.56,10.529 26.717,15.152 19.834,15.576 15.478,11.654 13.357,7.472 17.385,6.352 
				21.416,6.352 25.722,7.094 30.641,9.215 			"/>
		</g>
		<path fill="#8A8A8A" d="M6.954,4.465c0.37-0.24,0.731-0.493,1.111-0.715C8.508,3.49,8.968,3.588,9.184,4.05
			c0.544,1.165,1.04,2.352,1.562,3.525c0.093,0.209-0.046,0.266-0.175,0.35c-0.64,0.413-1.286,0.818-1.914,1.249
			C8.438,9.326,8.313,9.288,8.149,9.106C7.353,8.23,6.542,7.367,5.743,6.493C5.311,6.021,5.367,5.519,5.89,5.158
			C6.238,4.918,6.599,4.695,6.954,4.465z"/>
		<path fill="#0C0D0D" d="M5.272,39.121c0.063,0.1,0.103,0.178,0.113,0.248l1.921-0.356c-0.115-0.035-0.665-0.745-0.781-0.928
			c-1.16-1.836-2.461-3.593-3.192-5.664c-2.588-7.33-1.319-13.934,3.899-19.697c0.996-1.1,2.097-2.034,3.287-2.814
			c1.196-0.771,2.497-1.397,3.906-1.861c7.387-2.428,13.936-0.904,19.582,4.438c1.598,1.509,2.676,3.412,3.881,5.217
			c0.121,0.179,0.184,0.312,0.167,0.432l1.467-0.953c-0.059-0.038-0.113-0.106-0.179-0.203c-0.844-1.272-1.612-2.594-2.549-3.804
			C31.7,6.621,23.17,3.811,15.177,6.059c-0.851,0.24-1.681,0.531-2.489,0.886c-0.22,0.096-0.369,0.129-0.465-0.149
			c-0.321-0.923-0.793-1.781-1.107-2.714c-0.185-0.546-0.503-1.108-0.992-1.513c-0.828-0.688-1.975-0.784-2.89-0.208
			C6.85,2.602,6.47,2.849,6.091,3.096C5.711,3.342,5.332,3.589,4.956,3.841C4.058,4.443,3.68,5.53,3.972,6.566
			c0.172,0.611,0.555,1.131,0.98,1.521c0.724,0.666,1.317,1.446,2.029,2.113c0.214,0.202,0.125,0.325-0.052,0.486
			c-0.652,0.595-1.256,1.235-1.819,1.915c-5.301,6.392-6.198,15.326-2.277,22.643C3.557,36.595,4.453,37.833,5.272,39.121z
			 M5.989,5.143C6.305,4.924,6.63,4.72,6.954,4.512l0.001,0c0.014-0.009,0.026-0.018,0.04-0.027c0.013-0.009,0.027-0.017,0.04-0.025
			V4.459c0.322-0.21,0.641-0.425,0.968-0.625c0.542-0.331,1.022-0.178,1.279,0.409c0.474,1.085,0.933,2.177,1.411,3.26
			c0.098,0.224,0.082,0.354-0.146,0.493c-0.289,0.177-0.575,0.361-0.86,0.546H9.686c-0.013,0.008-0.025,0.016-0.04,0.024
			c-0.013,0.01-0.026,0.018-0.04,0.027l0,0C9.322,8.778,9.039,8.966,8.759,9.158C8.539,9.309,8.415,9.271,8.25,9.091
			C7.453,8.215,6.643,7.352,5.843,6.478C5.411,6.004,5.466,5.504,5.989,5.143z"/>
		<path fill="#0C0D0D" d="M49.305,39.958c-0.009-0.628-0.312-0.929-0.945-0.932c-0.646-0.002-1.289-0.019-1.935,0.011
			c-0.202,0.01-0.299-0.031-0.346-0.133h-1.752c-0.078,0.098-0.224,0.137-0.473,0.137c-6.028-0.019-12.058-0.013-18.085-0.015
			c-0.001,0-0.001,0-0.001,0c-0.016,0-0.031,0-0.046,0c-0.017,0-0.032,0-0.047,0c-0.001,0-0.001,0-0.003,0
			c-6.027,0.002-12.056-0.004-18.084,0.015c-0.249,0-0.393-0.039-0.475-0.137h-1.75c-0.046,0.102-0.144,0.143-0.346,0.133
			c-0.643-0.029-1.289-0.013-1.935-0.011c-0.631,0.003-0.938,0.304-0.944,0.932c-0.005,0.594,0.014,1.188-0.003,1.781
			c-0.013,0.42,0.162,0.696,0.508,0.921c0.721,0.467,1.458,0.909,2.168,1.398c0.656,0.448,1.379,0.706,2.255,0.698
			c6.203-0.047,12.405-0.024,18.607-0.024c0.005,0,0.012,0,0.018,0c0.01,0,0.02,0,0.03,0c0.009,0,0.019,0,0.028,0
			c0.007,0,0.013,0,0.02,0c6.204,0,12.405-0.022,18.608,0.024c0.876,0.008,1.6-0.25,2.254-0.698
			c0.709-0.489,1.447-0.932,2.169-1.398c0.346-0.225,0.521-0.501,0.509-0.921C49.291,41.146,49.311,40.552,49.305,39.958z
			 M47.505,41.541c-0.809,0.499-1.626,0.984-2.437,1.478c-0.142,0.088-0.295,0.06-0.445,0.06c-6.3,0-12.602-0.008-18.901,0
			c-6.302-0.008-12.603,0-18.903,0c-0.149,0-0.303,0.028-0.446-0.06c-0.81-0.493-1.627-0.979-2.435-1.478
			c-0.279-0.174-0.147-0.471-0.129-0.7c0.022-0.285,0.295-0.153,0.452-0.153c7.153-0.007,14.308-0.005,21.462-0.005
			c7.153,0,14.308-0.002,21.461,0.005c0.156,0,0.429-0.132,0.452,0.153C47.652,41.068,47.785,41.367,47.505,41.541z"/>
	</g>
	<path opacity="0.5" fill="#919191" enable-background="new    " d="M12.41,8.874c0,0,18.822-1.299,22.527,10.945l3.178-1.721
		C38.115,18.098,30.075,1.308,12.41,8.874z"/>
</g>
</svg>
