<svg width="16" height="21" viewBox="0 0 16 21" fill="none" xmlns="http://www.w3.org/2000/svg">
<path d="M7.75365 10.5C8.28672 10.5 8.74305 10.3042 9.12266 9.9125C9.50226 9.52083 9.69207 9.05 9.69207 8.5C9.69207 7.95 9.50226 7.47917 9.12266 7.0875C8.74305 6.69583 8.28672 6.5 7.75365 6.5C7.22059 6.5 6.76426 6.69583 6.38465 7.0875C6.00504 7.47917 5.81524 7.95 5.81524 8.5C5.81524 9.05 6.00504 9.52083 6.38465 9.9125C6.76426 10.3042 7.22059 10.5 7.75365 10.5ZM7.75365 17.85C9.72437 15.9833 11.1863 14.2875 12.1393 12.7625C13.0924 11.2375 13.5689 9.88333 13.5689 8.7C13.5689 6.88333 13.0076 5.39583 11.8849 4.2375C10.7622 3.07917 9.38515 2.5 7.75365 2.5C6.12216 2.5 4.74507 3.07917 3.62241 4.2375C2.49975 5.39583 1.93841 6.88333 1.93841 8.7C1.93841 9.88333 2.41494 11.2375 3.36799 12.7625C4.32105 14.2875 5.78293 15.9833 7.75365 17.85ZM7.75365 20.5C5.15295 18.2167 3.2105 16.0958 1.9263 14.1375C0.642099 12.1792 0 10.3667 0 8.7C0 6.2 0.779404 4.20833 2.33821 2.725C3.89702 1.24167 5.70217 0.5 7.75365 0.5C9.80514 0.5 11.6103 1.24167 13.1691 2.725C14.7279 4.20833 15.5073 6.2 15.5073 8.7C15.5073 10.3667 14.8652 12.1792 13.581 14.1375C12.2968 16.0958 10.3544 18.2167 7.75365 20.5Z" fill="#DAAA46"/>
</svg>
