<svg width="14" height="14" viewBox="0 0 14 14" fill="none" xmlns="http://www.w3.org/2000/svg">
<path d="M10.6376 0C11.9747 0.0730689 13.0878 0.737996 13.6733 2.13361C14.2442 3.49269 14.0491 4.81524 13.03 5.88205C11.2158 7.78914 9.34387 9.63048 7.49359 11.4937C6.15647 12.8382 6.713 12.4802 4.96391 12.9916C3.85084 13.3205 2.73778 13.62 1.62472 13.9269C0.764629 14.1681 0.106911 13.7516 0.00572354 12.9186C-0.0159595 12.7432 0.0274066 12.5752 0.0780003 12.4071C0.511661 10.9457 0.952549 9.48434 1.38621 8.03027C1.46571 7.75261 1.61027 7.52609 1.81264 7.3215C3.87976 5.23904 5.94687 3.14927 8.02121 1.06681C8.70061 0.372651 9.52457 0.0219207 10.6376 0ZM3.00521 11.0992C3.0558 11.0919 3.08471 11.0846 3.1064 11.0772C3.77134 10.8873 4.42906 10.6973 5.094 10.5146C5.19519 10.4854 5.26024 10.4342 5.33252 10.3612C6.66241 9.02401 7.98507 7.67954 9.31496 6.34969C9.43061 6.23278 9.43783 6.17432 9.31496 6.05741C8.8813 5.63361 8.44764 5.2025 8.02844 4.75678C7.87666 4.59603 7.79715 4.58142 7.63092 4.74948C6.32994 6.07202 5.02173 7.38726 3.71352 8.70981C3.64847 8.77557 3.56897 8.83403 3.54006 8.93633C3.33768 9.60856 3.12808 10.2808 2.9257 10.9603C2.91125 11.0407 2.88234 11.1284 3.00521 11.0992ZM11.635 3.54384C11.635 3.03236 11.3749 2.63048 10.9412 2.44781C10.4858 2.25052 10.0305 2.36743 9.62575 2.7547C9.50288 2.87161 9.48843 2.93737 9.61853 3.06889C9.99437 3.42693 10.3557 3.80689 10.7244 4.17954C11.1291 4.58873 11.2592 4.5595 11.5266 4.0261C11.6061 3.85804 11.6423 3.68998 11.635 3.54384Z" fill="#070709"/>
</svg>
