<svg width="360" height="188" viewBox="0 0 360 188" fill="none" xmlns="http://www.w3.org/2000/svg">
<path fill-rule="evenodd" clip-rule="evenodd" d="M40 188C66.4865 188 90.8256 178.806 110 163.435C129.174 178.806 153.513 188 180 188C210.324 188 237.833 175.949 258 156.374C278.167 175.949 305.676 188 336 188C397.856 188 448 137.856 448 76C448 14.1441 397.856 -36 336 -36C305.676 -36 278.167 -23.9487 258 -4.37424C237.833 -23.9487 210.324 -36 180 -36C153.513 -36 129.174 -26.8059 110 -11.4352C90.8256 -26.8059 66.4865 -36 40 -36C-21.8559 -36 -72 14.1441 -72 76C-72 137.856 -21.8559 188 40 188Z" fill="#33180D"/>
</svg>
